<svg width="469" height="439" viewBox="0 0 469 439" fill="none" xmlns="http://www.w3.org/2000/svg">
<path d="M364.722 47.861C406.739 76.8214 444.86 112.744 460.443 157.02C475.747 201.296 468.791 253.926 453.208 304.05C437.347 353.895 413.139 401.791 374.461 422.954C336.061 444.396 283.192 439.384 232.827 435.764C182.741 432.422 134.881 430.195 102.603 406.803C70.0463 383.691 52.5161 339.136 33.038 292.076C13.5599 245.293 -8.42251 195.726 3.26434 156.463C14.6729 116.921 59.7508 87.4031 103.159 58.9996C146.567 30.5961 188.306 3.30645 232.549 0.243327C276.514 -2.54133 322.427 18.9005 364.722 47.861Z" fill="#CAEFEA"/>
</svg>
